# xmcd CD database file
#
# Track frame offsets:
#	180
#	13176
#	25597
#	38435
#	51764
#	65120
#	78125
#	91842
#	105871
#	119297
#	131863
#	145434
#	160152
#	173830
#	186511
#	199595
#	212870
#	226298
#	240336
#	254413
#	268373
#	279651
#	291288
#	305762
#	318111
#
# Disc length: 4404 seconds
#
# Revision: 0
# Processed by: cddbd v1.5.1PL0 Copyright (c) Steve Scherf et al.
# Submitted via: CDex 1.51
#
DISCID=67113219
DTITLE=Benny Carter  - Vol 7 - 1936-1937
DYEAR=1936
DGENRE=Jazz
TTITLE0=Some of These Days [Master Take]
TTITLE1=Some of These Days
TTITLE2=Gloaming
TTITLE3=Poor Butterfly
TTITLE4=Drop in Next Time You're Passing
TTITLE5=The Man I Love
TTITLE6=The Man I Love [Master Take]
TTITLE7=That's How the First Song Was Born
TTITLE8=There'll Be Some Changes Made
TTITLE9=There'll Be Some Changes Made [Master Take]
TTITLE10=Jingle Bells [Master Take]
TTITLE11=Jingle Bells
TTITLE12=Royal Garden Blues
TTITLE13=Carry Me Back to Old Virginny
TTITLE14=Gin and Jive
TTITLE15=Gin and Jive [Master Take]
TTITLE16=Nagasaki [Master Take]
TTITLE17=Nagasaki
TTITLE18=There's a Small Hotel
TTITLE19=There's a Small Hotel
TTITLE20=I'm in the Mood for Swing
TTITLE21=I'm in the Mood for Swing [Master Take]
TTITLE22=Rambling in C
TTITLE23=One, Two, Button Your Shoe
TTITLE24=The Rhythm of the Tambourine
EXTD=YEAR: 1936
EXTT0=
EXTT1=
EXTT2=
EXTT3=
EXTT4=
EXTT5=
EXTT6=
EXTT7=
EXTT8=
EXTT9=
EXTT10=
EXTT11=
EXTT12=
EXTT13=
EXTT14=
EXTT15=
EXTT16=
EXTT17=
EXTT18=
EXTT19=
EXTT20=
EXTT21=
EXTT22=
EXTT23=
EXTT24=
PLAYORDER=
